<svg xmlns="http://www.w3.org/2000/svg" xmlns:xlink="http://www.w3.org/1999/xlink" width="70" height="64.167" viewBox="0 0 70 64.167">
  <defs>
    <linearGradient id="linear-gradient" x1="-1.004" y1="2.233" x2="-0.972" y2="2.181" gradientUnits="objectBoundingBox">
      <stop offset="0" stop-opacity="0.102"/>
      <stop offset="1" stop-opacity="0"/>
    </linearGradient>
    <linearGradient id="linear-gradient-2" x1="-0.093" y1="1.324" x2="-0.046" y2="1.3" gradientUnits="objectBoundingBox">
      <stop offset="0" stop-color="#fff" stop-opacity="0.2"/>
      <stop offset="1" stop-color="#fff" stop-opacity="0"/>
    </linearGradient>
  </defs>
  <g id="pokemon" transform="translate(0 -21.333)">
    <path id="Caminho_4" data-name="Caminho 4" d="M61.25,54.875A31.45,31.45,0,0,0,58.823,44.4C66.642,42.383,70,28.558,70,22.791a1.458,1.458,0,0,0-1.458-1.458c-8.222,0-19.3,5.343-21.469,11.151A34.463,34.463,0,0,0,35,30.083a34.462,34.462,0,0,0-12.072,2.4C20.761,26.676,9.68,21.333,1.458,21.333A1.458,1.458,0,0,0,0,22.791C0,28.558,3.358,42.383,11.177,44.4A31.449,31.449,0,0,0,8.75,54.875a7.61,7.61,0,0,1-1.191,4.634c-.809,1.411-1.726,3.013-1.726,7.032C5.833,74.29,16.221,85.5,35,85.5S64.167,74.29,64.167,66.541c0-4.019-.917-5.621-1.726-7.033A7.61,7.61,0,0,1,61.25,54.875Z" transform="translate(0 0)" fill="#303c42"/>
    <path id="Caminho_5" data-name="Caminho 5" d="M109.692,74.955a1.461,1.461,0,0,1,1.965.627c.052.1.441.867.966,2.035a6.6,6.6,0,0,0,3.669-2.225c-.2-3.022-1.95-9.8-3.865-12.4-3.966,1.908-7.056,4.463-7.743,6.585,1.205.565,1.945.989,2.04,1.044a1.458,1.458,0,0,1-1.472,2.518c-.071-.041-7.257-4.176-15.307-4.176a34.371,34.371,0,0,0-15.3,4.176,1.459,1.459,0,0,1-1.475-2.518c.094-.055.834-.479,2.04-1.044-.687-2.122-3.778-4.677-7.743-6.585-1.973,2.685-3.711,9.6-3.816,12.457a6.554,6.554,0,0,0,3.621,2.171c.524-1.168.914-1.933.966-2.035a1.458,1.458,0,0,1,2.592,1.337c-.043.083-4.213,8.24-4.213,13.915a10.487,10.487,0,0,1-1.575,6.084A8.46,8.46,0,0,0,63.995,99.4a7.27,7.27,0,1,1,5.965,13.032c4.375,3.408,11.029,6.113,19.985,6.113s15.61-2.705,19.985-6.113A7.272,7.272,0,1,1,115.895,99.4a8.462,8.462,0,0,0-1.042-2.479,10.487,10.487,0,0,1-1.575-6.084c0-5.687-4.17-13.833-4.213-13.914A1.458,1.458,0,0,1,109.692,74.955Z" transform="translate(-54.944 -35.96)" fill="#ffee58"/>
    <circle id="Elipse_2" data-name="Elipse 2" cx="4.375" cy="4.375" r="4.375" transform="translate(17.5 50.5)" fill="#303c42"/>
    <circle id="Elipse_3" data-name="Elipse 3" cx="1.458" cy="1.458" r="1.458" transform="translate(21.875 51.958)" fill="#fff"/>
    <circle id="Elipse_4" data-name="Elipse 4" cx="4.375" cy="4.375" r="4.375" transform="translate(43.75 50.5)" fill="#303c42"/>
    <circle id="Elipse_5" data-name="Elipse 5" cx="1.458" cy="1.458" r="1.458" transform="translate(45.442 51.958)" fill="#fff"/>
    <path id="Caminho_6" data-name="Caminho 6" d="M199.091,303.669a3.884,3.884,0,0,1-2.23.782,5.871,5.871,0,0,1-4.352-1.04.581.581,0,1,1,.063-.8l1.458-1.458A1.458,1.458,0,0,0,193,298.667h-2.917a1.458,1.458,0,0,0-1.031,2.489l1.458,1.458a.581.581,0,1,1,.063.8,5.855,5.855,0,0,1-4.352,1.04,3.884,3.884,0,0,1-2.23-.782,1.459,1.459,0,0,0-2.4,1.664c.984,1.418,3.091,1.852,4.092,1.985-.025,2.145.114,5.387,2.015,7.332a5.163,5.163,0,0,0,3.842,1.518,4.857,4.857,0,0,0,3.643-1.569c1.843-1.982,2.181-5.337,2.214-7.281,1-.133,3.107-.567,4.092-1.985a1.459,1.459,0,0,0-2.4-1.664Z" transform="translate(-156.54 -239.417)" fill="#303c42"/>
    <path id="Caminho_7" data-name="Caminho 7" d="M235.669,360.774c-1.116-1.142-1.2-3.688-1.185-5.325a8.25,8.25,0,0,0,2.94-.991,8.278,8.278,0,0,0,2.938.942c-.035,1.65-.325,4.183-1.431,5.375A2.34,2.34,0,0,1,235.669,360.774Z" transform="translate(-202.423 -287.581)" fill="#e53935"/>
    <path id="Caminho_8" data-name="Caminho 8" d="M237.427,357.033a7.959,7.959,0,0,0,2.678.883,16.116,16.116,0,0,0,.261-2.517,8.274,8.274,0,0,1-2.938-.942,8.246,8.246,0,0,1-2.94.991,18.383,18.383,0,0,0,.137,2.542A8.168,8.168,0,0,0,237.427,357.033Z" transform="translate(-202.427 -287.581)" opacity="0.1"/>
    <path id="Caminho_9" data-name="Caminho 9" d="M389.481,349.891A4.245,4.245,0,0,1,384,345.708a4.38,4.38,0,0,1,4.375-4.375,4.325,4.325,0,0,1,4.138,3.117A13.513,13.513,0,0,1,389.481,349.891Z" transform="translate(-331.5 -276.25)" fill="#e53935"/>
    <path id="Caminho_10" data-name="Caminho 10" d="M384.789,346.667a4.38,4.38,0,0,1,4.375-4.375,4.209,4.209,0,0,1,2.868,1.164,4.255,4.255,0,0,0-3.658-2.123A4.38,4.38,0,0,0,384,345.708a4.426,4.426,0,0,0,1.476,3.317A4.482,4.482,0,0,1,384.789,346.667Z" transform="translate(-331.499 -276.25)" fill="#fff" opacity="0.2"/>
    <path id="Caminho_11" data-name="Caminho 11" d="M68.766,349.891a13.515,13.515,0,0,1-3.03-5.44,4.325,4.325,0,0,1,4.138-3.117,4.38,4.38,0,0,1,4.375,4.375A4.253,4.253,0,0,1,68.766,349.891Z" transform="translate(-56.749 -276.251)" fill="#e53935"/>
    <path id="Caminho_12" data-name="Caminho 12" d="M70.117,342.671a4.367,4.367,0,0,1,4.126,2.981,4.376,4.376,0,0,0-4.369-4.317,4.325,4.325,0,0,0-4.138,3.117,9.725,9.725,0,0,0,.357,1.1A4.294,4.294,0,0,1,70.117,342.671Z" transform="translate(-56.749 -276.251)" fill="#fff" opacity="0.2"/>
    <path id="Caminho_13" data-name="Caminho 13" d="M183.229,337.41l4.182,4.182c-.067-.786-.1-1.546-.09-2.2C186.32,339.262,184.214,338.828,183.229,337.41Zm24.533,3.543c0-.166.038-.322.049-.485l-4.643-4.643h0a1.45,1.45,0,0,1-.039,1.585c-.985,1.418-3.092,1.852-4.092,1.985-.033,1.944-.371,5.3-2.214,7.281a4.857,4.857,0,0,1-3.643,1.569,5.163,5.163,0,0,1-3.842-1.518l7.215,7.215a30.751,30.751,0,0,0,16.613-5.976A7.282,7.282,0,0,1,207.762,340.953Z" transform="translate(-158.178 -271.495)" fill="url(#linear-gradient)"/>
    <path id="Caminho_14" data-name="Caminho 14" d="M61.25,54.875A31.45,31.45,0,0,0,58.823,44.4C66.642,42.383,70,28.558,70,22.791a1.458,1.458,0,0,0-1.458-1.458c-8.222,0-19.3,5.343-21.469,11.151A34.463,34.463,0,0,0,35,30.083a34.462,34.462,0,0,0-12.072,2.4C20.761,26.676,9.68,21.333,1.458,21.333A1.458,1.458,0,0,0,0,22.791C0,28.558,3.358,42.383,11.177,44.4A31.449,31.449,0,0,0,8.75,54.875a7.61,7.61,0,0,1-1.191,4.634c-.809,1.411-1.726,3.013-1.726,7.032C5.833,74.29,16.221,85.5,35,85.5S64.167,74.29,64.167,66.541c0-4.019-.917-5.621-1.726-7.033A7.61,7.61,0,0,1,61.25,54.875Z" transform="translate(0 0)" fill="url(#linear-gradient-2)"/>
  </g>
</svg>
