<svg xmlns="http://www.w3.org/2000/svg" width="44.152" height="44.153" viewBox="0 0 44.152 44.153">
  <g id="back" transform="translate(-0.007)">
    <g id="Grupo_10" data-name="Grupo 10" transform="translate(0.007 0)">
      <path id="Caminho_30" data-name="Caminho 30" d="M17.351,9.5V1.576A1.577,1.577,0,0,0,14.6.521L.41,16.291a1.577,1.577,0,0,0-.049,2.05L14.554,35.687a1.577,1.577,0,0,0,2.8-1V26.834c12.458.405,20.232,5.731,23.736,16.242a1.577,1.577,0,0,0,1.495,1.077,1.528,1.528,0,0,0,.254-.021,1.577,1.577,0,0,0,1.323-1.556C44.159,24.007,32.98,10.365,17.351,9.5Z" transform="translate(-0.007 0)" fill="#fff"/>
    </g>
  </g>
</svg>
