<svg xmlns="http://www.w3.org/2000/svg" width="281.584" height="84.392" viewBox="0 0 281.584 84.392">
  <g id="Interseção_1" data-name="Interseção 1" opacity="0.43">
    <path d="M 140.7918701171875 83.89213562011719 C 125.9077682495117 83.89213562011719 111.1736602783203 81.83835601806641 96.99876403808594 77.78785705566406 C 83.26294708251953 73.86285400390625 70.10205078125 68.08120727539062 57.88158798217773 60.60360336303711 C 33.91610336303711 45.93931198120117 14.20654964447021 25.16896820068359 0.837212860584259 0.4999963939189911 L 280.7471313476562 0.4999963939189911 C 267.3777770996094 25.16907119750977 247.6682586669922 45.93938446044922 223.7029113769531 60.60360336303711 C 211.4824523925781 68.08120727539062 198.3214416503906 73.86285400390625 184.5855560302734 77.78785705566406 C 170.4105529785156 81.83835601806641 155.6762390136719 83.89213562011719 140.7918701171875 83.89213562011719 Z" stroke="none"/>
    <path d="M 1.67938232421875 1 C 14.99850463867188 25.26708221435547 34.49211120605469 45.70559310913086 58.14254760742188 60.17710113525391 C 70.32444763183594 67.63114166259766 83.44380187988281 73.39449310302734 97.13612365722656 77.30710601806641 C 111.2663421630859 81.34485626220703 125.9542694091797 83.39213562011719 140.7918701171875 83.39213562011719 C 155.6297607421875 83.39213562011719 170.31787109375 81.34485626220703 184.4481964111328 77.30710601806641 C 198.140625 73.39449310302734 211.2599792480469 67.63114166259766 223.4419097900391 60.17710113525391 C 247.0921783447266 45.70566177368164 266.5857543945312 25.26715087890625 279.9049072265625 1 L 1.67938232421875 1 M -3.0517578125e-05 0 L 281.5842895507812 0 C 254.7060546875 50.22406768798828 201.7388305664062 84.39213562011719 140.7918701171875 84.39213562011719 C 79.84605407714844 84.39213562011719 26.87826538085938 50.22406768798828 -3.0517578125e-05 0 Z" stroke="none" fill="#707070"/>
  </g>
</svg>
