<svg xmlns="http://www.w3.org/2000/svg" width="42.322" height="48.155" viewBox="0 0 42.322 48.155">
  <g id="turn-off" transform="translate(-31.01)">
    <g id="Grupo_12" data-name="Grupo 12" transform="translate(47.941)">
      <g id="Grupo_11" data-name="Grupo 11" transform="translate(0)">
        <path id="Caminho_31" data-name="Caminho 31" d="M215.255,0a4.237,4.237,0,0,0-4.233,4.233V21.258a4.233,4.233,0,0,0,8.466,0V4.233A4.237,4.237,0,0,0,215.255,0Z" transform="translate(-211.022)" fill="#fff"/>
      </g>
    </g>
    <g id="Grupo_14" data-name="Grupo 14" transform="translate(31.01 10.07)">
      <g id="Grupo_13" data-name="Grupo 13" transform="translate(0)">
        <path id="Caminho_32" data-name="Caminho 32" d="M66.338,108.188a4.233,4.233,0,1,0-5.633,6.317,12.7,12.7,0,1,1-17.066,0,4.233,4.233,0,1,0-5.659-6.294,21.166,21.166,0,1,0,28.357-.026Z" transform="translate(-31.01 -107.07)" fill="#fff"/>
      </g>
    </g>
  </g>
</svg>
