<svg id="photo" xmlns="http://www.w3.org/2000/svg" width="30.085" height="26.325" viewBox="0 0 30.085 26.325">
  <path id="Caminho_26" data-name="Caminho 26" d="M189.582,199.535a3.761,3.761,0,1,1-5.318,0,3.761,3.761,0,0,1,5.318,0" transform="translate(-171.881 -188.091)" fill="#fff"/>
  <path id="Caminho_27" data-name="Caminho 27" d="M26.324,34.283h-2.6l-1.881-3.761H8.238L6.359,34.285l-2.595,0A3.767,3.767,0,0,0,.01,38.048L0,53.085a3.765,3.765,0,0,0,3.761,3.762H26.324a3.764,3.764,0,0,0,3.761-3.761V38.043A3.765,3.765,0,0,0,26.324,34.283ZM15.042,52.146a7.521,7.521,0,1,1,7.521-7.521A7.53,7.53,0,0,1,15.042,52.146Z" transform="translate(0 -30.522)" fill="#fff"/>
</svg>
