<svg id="search" xmlns="http://www.w3.org/2000/svg" width="36.164" height="31.994" viewBox="0 0 36.164 31.994">
  <g id="Grupo_5" data-name="Grupo 5">
    <path id="Caminho_3" data-name="Caminho 3" d="M35.722,29.721l-10.284-9.1a11.744,11.744,0,0,0,3.191-7.956C28.629,5.685,22.207,0,14.315,0S0,5.685,0,12.667,6.422,25.332,14.315,25.332a15.43,15.43,0,0,0,8.993-2.823l10.284,9.1a1.648,1.648,0,0,0,2.131,0A1.226,1.226,0,0,0,35.722,29.721ZM14.315,22.665c-6.232,0-11.3-4.484-11.3-10s5.069-10,11.3-10,11.3,4.484,11.3,10S20.547,22.665,14.315,22.665Z" transform="translate(0 -0.003)" fill="#fff"/>
  </g>
</svg>
